<svg xmlns="http://www.w3.org/2000/svg" version="1.1" xmlns:xlink="http://www.w3.org/1999/xlink" xmlns:svgjs="http://svgjs.dev/svgjs" width="1440" height="560" preserveAspectRatio="none" viewBox="0 0 1440 560"><g mask="url(&quot;#SvgjsMask1009&quot;)" fill="none"><rect width="1440" height="560" x="0" y="0" fill="#0e2a47"></rect><path d="M1170.31-111.61C994.67-102.74 884.77 194.23 542.61 205.95 200.45 217.67 81.97 431.98-85.09 435.55" stroke="rgba(51,121,194,0.58)" stroke-width="2"></path><path d="M1144.84-5.73C975.44 51.88 949.16 534.52 693.3 549.57 437.44 564.62 467.53 479.57 241.76 479.57 15.99 479.57-95.55 549.36-209.78 549.57" stroke="rgba(51,121,194,0.58)" stroke-width="2"></path><path d="M1095.03-60.31C893.4-22.17 803.55 483.68 484.06 487.85 164.58 492.02 31.88 315.92-126.9 314.25" stroke="rgba(51,121,194,0.58)" stroke-width="2"></path><path d="M805.86-47.41C670.74-30.46 588.82 276.22 367.9 276.48 146.99 276.74 50.96 74.42-70.05 69.28" stroke="rgba(51,121,194,0.58)" stroke-width="2"></path><path d="M706.33-8.31C618.98-5.51 644.63 121.18 384.6 128.39 124.56 135.6-86.16 375.95-258.87 380.39" stroke="rgba(51,121,194,0.58)" stroke-width="2"></path></g><defs><mask id="SvgjsMask1009"><rect width="1440" height="560" fill="#ffffff"></rect></mask></defs></svg>