<svg xmlns="http://www.w3.org/2000/svg" version="1.1" xmlns:xlink="http://www.w3.org/1999/xlink" xmlns:svgjs="http://svgjs.dev/svgjs" width="1440" height="560" preserveAspectRatio="none" viewBox="0 0 1440 560"><g mask="url(&quot;#SvgjsMask1003&quot;)" fill="none"><rect width="1440" height="560" x="0" y="0" fill="#0e2a47"></rect><path d="M0,486.465C103.83,510.89,219.731,538.652,313.508,487.828C408.363,436.42,436.724,317.857,487.122,222.461C540.808,120.842,651.687,21.056,618.184,-88.881C583.615,-202.314,418.249,-206.35,331.728,-287.444C258.25,-356.314,246.534,-484.604,153.879,-524.065C60.068,-564.019,-44.86,-514.341,-143.878,-490.003C-247.505,-464.532,-362.948,-455.481,-437.151,-378.793C-512.553,-300.867,-546.219,-186.375,-542.528,-78.004C-539.096,22.758,-476.194,108.627,-417.753,190.781C-368.116,260.558,-301.059,310.227,-231.164,359.698C-157.95,411.518,-87.314,465.925,0,486.465" fill="#0b2239"></path><path d="M1440 1062.688C1533.814 1048.436 1629.648 1029.262 1702.51 968.473 1771.28 911.098 1795.638 820.7860000000001 1829.384 737.826 1861.6970000000001 658.391 1900.224 580.152 1895.296 494.538 1890.1190000000001 404.605 1858.859 316.231 1801.134 247.075 1742.834 177.231 1659.629 134.902 1572.7 108.06400000000002 1484.879 80.95100000000002 1393.527 77.63499999999999 1302.956 93.27199999999999 1203.528 110.43799999999999 1092.961 125.781 1027.1390000000001 202.25400000000002 961.357 278.681 972.8820000000001 390.985 960.566 491.068 948.514 589.009 929.0409999999999 686.125 955.912 781.076 985.675 886.2470000000001 1026.209 1001.902 1120.686 1056.863 1214.607 1111.5 1332.576 1079.008 1440 1062.688" fill="#113255"></path></g><defs><mask id="SvgjsMask1003"><rect width="1440" height="560" fill="#ffffff"></rect></mask></defs></svg>