<svg xmlns="http://www.w3.org/2000/svg" version="1.1" xmlns:xlink="http://www.w3.org/1999/xlink" xmlns:svgjs="http://svgjs.dev/svgjs" width="1440" height="560" preserveAspectRatio="none" viewBox="0 0 1440 560"><g mask="url(&quot;#SvgjsMask1008&quot;)" fill="none"><rect width="1440" height="560" x="0" y="0" fill="#0e2a47"></rect><path d="M0,672.763C123.886,683.831,223.26,577.359,325.879,507.078C425.528,438.831,537.505,378.233,589.335,269.14C641.474,159.397,629.68,32.144,608.35,-87.468C587.564,-204.025,540.134,-311.733,468.885,-406.291C393.725,-506.039,307.689,-604.817,189.07,-643.912C68.835,-683.54,-62.253,-661.058,-182.318,-620.917C-299.336,-581.795,-402.815,-512.303,-483.582,-419.026C-564.329,-325.772,-647.626,-215.188,-640.252,-92.054C-633.057,28.095,-511.371,102.563,-446.282,203.81C-392.367,287.676,-359.221,379.787,-290.489,452.01C-204.915,541.93,-123.639,661.717,0,672.763" fill="#0b2239"></path><path d="M1440 1058.885C1545.794 1066.229 1651.162 1079.208 1751.371 1044.502 1870.08 1003.3879999999999 2023.603 963.5699999999999 2061.257 843.719 2099.874 720.804 1963.2640000000001 613.379 1925.522 490.192 1895.348 391.70799999999997 1912.99 283.761 1862.2359999999999 194.13 1804.425 92.03699999999998 1735.156-32.15999999999997 1619.29-50.60500000000002 1501.837-69.303 1415.339 57.504999999999995 1306.598 105.67399999999998 1216.07 145.77499999999998 1110.518 145.24200000000002 1034.351 208.503 950.6469999999999 278.023 890.608 372.196 859.987 476.60699999999997 826.31 591.438 794.062 723.8820000000001 852.591 828.26 910.752 931.98 1044.536 959.6600000000001 1155.225 1003.1179999999999 1247.124 1039.199 1341.509 1052.048 1440 1058.885" fill="#113255"></path></g><defs><mask id="SvgjsMask1008"><rect width="1440" height="560" fill="#ffffff"></rect></mask></defs></svg>