<svg xmlns="http://www.w3.org/2000/svg" version="1.1" xmlns:xlink="http://www.w3.org/1999/xlink" xmlns:svgjs="http://svgjs.dev/svgjs" width="1440" height="560" preserveAspectRatio="none" viewBox="0 0 1440 560"><g mask="url(&quot;#SvgjsMask1085&quot;)" fill="none"><rect width="1440" height="560" x="0" y="0" fill="#0e2a47"></rect><path d="M -771.1329748527737,315 C -675.13,285.8 -483.13,157.4 -291.13297485277366,169 C -99.13,180.6 -3.13,360.6 188.86702514722634,373 C 380.87,385.4 476.87,227.4 668.8670251472263,231 C 860.87,234.6 994.64,390 1148.8670251472263,391 C 1303.09,392 1381.77,267 1440,236" stroke="rgba(51, 121, 194, 0.58)" stroke-width="2"></path><path d="M -609.711097271118,174 C -513.71,217.2 -321.71,382.2 -129.71109727111795,390 C 62.29,397.8 158.29,212.2 350.288902728882,213 C 542.29,213.8 638.29,393.8 830.288902728882,394 C 1022.29,394.2 1188.35,226.2 1310.288902728882,214 C 1432.23,201.8 1414.06,309.2 1440,333" stroke="rgba(51, 121, 194, 0.58)" stroke-width="2"></path></g><defs><mask id="SvgjsMask1085"><rect width="1440" height="560" fill="#ffffff"></rect></mask></defs></svg>